<?xml version="1.0" standalone="no"?>
<!DOCTYPE svg PUBLIC "-//W3C//DTD SVG 20010904//EN"
 "http://www.w3.org/TR/2001/REC-SVG-20010904/DTD/svg10.dtd">
<svg version="1.0" xmlns="http://www.w3.org/2000/svg"
 width="752.000000pt" height="256.000000pt" viewBox="0 0 752.000000 256.000000"
 preserveAspectRatio="xMidYMid meet">

<g transform="translate(0.000000,256.000000) scale(0.100000,-0.100000)"
fill="#000000" stroke="none">
<path d="M0 2393 c0 -205 15 -467 35 -627 60 -465 244 -882 571 -1296 70 -88
415 -439 450 -458 18 -9 35 3 143 101 387 353 662 763 805 1198 97 295 124
487 133 937 l6 312 -1072 0 -1071 0 0 -167z m1112 -50 c22 -20 24 -76 3 -93
-26 -22 -6 -28 31 -10 27 14 42 16 63 9 65 -23 58 -107 -11 -132 -9 -3 -32 3
-52 13 -42 21 -52 12 -36 -34 28 -87 127 -109 197 -44 l21 20 7 -21 c17 -56
100 -78 149 -40 35 28 33 39 -9 39 -54 0 -71 55 -25 80 23 12 47 4 61 -21 5
-11 16 -19 24 -19 17 0 20 26 5 35 -21 13 -11 64 16 81 23 16 28 16 60 1 l34
-17 -62 -126 -63 -126 -50 7 c-157 20 -229 25 -405 25 -107 -1 -249 -7 -315
-15 -66 -8 -123 -15 -127 -15 -8 0 -128 233 -128 249 0 16 59 31 85 21 29 -11
41 -50 26 -78 -6 -12 -11 -25 -11 -31 0 -19 28 -12 35 8 13 40 71 37 81 -5 8
-32 -11 -54 -47 -54 -35 0 -39 -22 -7 -44 36 -25 91 -20 122 10 14 15 26 34
26 42 0 12 5 11 23 -6 56 -53 152 -47 187 11 32 52 23 112 -10 72 -7 -9 -29
-15 -51 -15 -43 0 -69 26 -69 71 0 53 77 83 118 46 10 -9 22 -17 25 -17 13 0
7 27 -8 40 -21 17 -19 56 5 80 24 24 57 26 82 3z m-277 -177 c30 -45 -16 -91
-61 -61 -28 18 -31 41 -7 67 22 25 49 23 68 -6z m536 14 c23 -13 25 -53 3 -74
-19 -20 -24 -20 -52 0 -26 18 -28 46 -6 68 18 19 28 20 55 6z m53 -260 c39 -6
72 -12 74 -15 3 -2 -1 -18 -8 -36 -13 -29 -16 -31 -54 -25 -145 20 -371 28
-521 17 -88 -6 -179 -14 -202 -17 -39 -6 -42 -4 -57 24 -9 17 -16 33 -16 35 0
4 89 18 200 31 66 8 515 -3 584 -14z m-46 -106 l23 -7 -6 -196 c-12 -368 -26
-447 -93 -536 -56 -74 -132 -110 -231 -110 -93 1 -150 25 -211 91 -82 89 -95
150 -109 524 -5 124 -7 227 -5 229 17 19 573 23 632 5z m-674 -66 c3 -29 10
-154 15 -278 8 -175 15 -242 31 -299 15 -52 20 -96 18 -150 -3 -71 -5 -77 -30
-89 -21 -10 -33 -10 -48 -2 -25 13 -26 27 -2 33 9 3 3 5 -14 6 -35 1 -59 23
-69 64 -8 30 -6 32 29 16 39 -18 76 10 76 57 0 44 -19 81 -86 169 -76 100 -98
155 -99 240 0 57 6 80 28 125 26 50 121 160 138 160 4 0 10 -24 13 -52z m809
-1 c80 -81 102 -134 102 -237 0 -100 -12 -127 -110 -256 -67 -87 -86 -138 -67
-178 12 -28 54 -41 82 -26 17 9 20 8 20 -12 0 -40 -27 -68 -68 -69 -20 -1 -29
-3 -19 -6 21 -6 22 -17 2 -33 -12 -10 -21 -10 -45 0 l-30 12 0 92 c0 52 7 112
15 141 17 56 30 205 40 458 4 98 11 167 17 167 5 0 33 -24 61 -53z m-574 -801
c35 -16 65 -21 131 -21 93 0 142 19 225 85 l40 32 5 -149 c4 -127 8 -153 26
-184 l21 -35 -39 -42 -39 -42 -237 0 -238 0 -25 28 c-51 56 -51 57 -27 98 19
33 22 55 26 181 l5 143 40 -36 c22 -20 60 -46 86 -58z"/>
<path d="M892 1742 c-9 -6 0 -12 27 -20 43 -13 97 -67 107 -107 10 -38 24 -30
24 14 0 53 -36 95 -94 110 -53 13 -48 13 -64 3z"/>
<path d="M1197 1740 c-76 -23 -96 -76 -97 -247 0 -132 0 -133 -23 -133 -21 0
-67 -36 -67 -53 0 -4 36 -7 80 -7 44 0 80 4 80 8 0 5 -9 17 -20 27 -18 16 -20
31 -20 139 0 67 5 138 11 159 14 52 56 77 132 77 58 0 97 12 97 30 0 12 -134
12 -173 0z"/>
<path d="M851 1661 c-12 -8 -11 -13 10 -30 23 -20 23 -21 5 -35 -18 -14 -17
-15 6 -21 34 -9 89 7 102 29 24 39 -77 86 -123 57z"/>
<path d="M1231 1661 c-12 -8 -11 -13 10 -30 23 -20 23 -21 5 -35 -18 -14 -17
-15 6 -21 34 -9 89 7 102 29 24 39 -77 86 -123 57z"/>
<path d="M988 1209 c-21 -11 -38 -22 -38 -24 0 -3 57 -5 128 -5 l127 1 -45 24
c-56 30 -121 32 -172 4z"/>
<path d="M1010 1120 c33 -26 91 -26 121 0 l24 19 -85 0 -85 1 25 -20z"/>
<path d="M4410 1885 l0 -355 55 0 54 0 3 125 3 124 109 -124 109 -125 63 0
c35 0 64 3 64 6 0 3 -49 61 -110 129 -60 68 -110 127 -110 132 0 4 45 60 100
123 l100 115 -62 3 -63 3 -60 -68 c-33 -37 -79 -88 -102 -113 l-43 -45 0 213
0 212 -55 0 -55 0 0 -355z"/>
<path d="M4930 1885 l0 -355 55 0 55 0 0 163 c0 142 2 166 19 193 35 58 134
69 179 21 35 -38 42 -73 42 -228 l0 -150 53 3 52 3 0 180 c0 167 -2 183 -23
222 -12 23 -38 54 -59 70 -33 25 -44 28 -119 28 -70 0 -87 -3 -113 -23 l-31
-23 0 126 0 125 -55 0 -55 0 0 -355z"/>
<path d="M6090 1885 l0 -355 55 0 55 0 0 355 0 355 -55 0 -55 0 0 -355z"/>
<path d="M2572 2154 c-113 -56 -131 -180 -38 -269 25 -25 70 -51 116 -70 98
-39 130 -67 130 -110 0 -87 -116 -107 -215 -37 l-41 29 -38 -33 c-44 -38 -41
-48 24 -89 52 -33 103 -47 169 -46 127 0 211 70 211 176 0 88 -42 134 -181
198 -128 59 -156 101 -104 152 32 33 101 34 156 3 l40 -22 31 31 c28 28 30 34
17 49 -8 9 -36 28 -64 40 -69 33 -145 32 -213 -2z"/>
<path d="M2997 2153 c-4 -3 -7 -30 -7 -60 l0 -53 -40 0 -40 0 0 -50 0 -50 40
0 40 0 0 -142 c1 -215 27 -255 172 -266 l68 -5 0 50 0 50 -47 6 c-75 8 -83 24
-83 178 l0 129 65 0 65 0 0 50 0 50 -65 0 -65 0 0 60 0 60 -48 0 c-27 0 -52
-3 -55 -7z"/>
<path d="M3422 2014 c-64 -32 -108 -83 -127 -148 -19 -63 -19 -99 0 -162 32
-107 129 -175 249 -175 83 0 137 23 189 81 90 100 92 246 5 345 -54 61 -108
85 -194 85 -55 0 -81 -5 -122 -26z m188 -93 c44 -23 80 -84 80 -134 0 -141
-159 -207 -255 -107 -24 25 -30 41 -33 93 -3 52 0 67 20 97 44 65 122 87 188
51z"/>
<path d="M4025 2021 c-94 -42 -145 -125 -145 -236 0 -112 52 -195 148 -237 86
-38 224 -18 276 41 20 22 20 22 -16 58 l-36 35 -31 -23 c-47 -34 -126 -33
-174 4 -61 46 -75 150 -28 215 43 62 147 77 207 30 l26 -21 36 36 c36 36 36
36 16 58 -51 58 -195 79 -279 40z"/>
<path d="M5622 2019 c-54 -27 -115 -96 -130 -147 -15 -50 -15 -124 0 -174 16
-53 88 -132 140 -153 67 -26 160 -22 227 12 178 89 188 342 16 448 -42 26 -60
30 -129 33 -67 2 -88 -1 -124 -19z m171 -93 c45 -19 74 -54 85 -101 29 -134
-92 -237 -208 -177 -40 21 -80 90 -80 137 0 47 40 116 80 137 41 22 79 23 123
4z"/>
<path d="M6310 1785 l0 -255 55 0 55 0 0 169 c0 167 0 170 26 200 30 36 81 49
125 31 52 -22 59 -50 59 -235 l0 -165 55 0 55 0 0 161 c0 144 2 165 20 194 40
65 130 71 174 12 19 -26 21 -44 24 -198 l3 -169 55 0 56 0 -4 183 c-3 173 -4
185 -29 232 -37 73 -83 97 -176 93 -62 -3 -78 -8 -117 -35 -44 -31 -44 -31
-63 -11 -30 34 -69 48 -130 48 -40 0 -68 -6 -91 -20 -40 -25 -42 -25 -42 0 0
18 -7 20 -55 20 l-55 0 0 -255z"/>
<path d="M7245 2026 c-54 -24 -85 -71 -85 -128 0 -48 3 -55 43 -92 25 -24 68
-50 104 -64 94 -35 119 -79 62 -111 -32 -18 -85 -9 -131 23 l-34 23 -37 -32
-37 -32 23 -20 c39 -35 75 -53 127 -64 134 -29 254 66 225 178 -9 39 -73 96
-131 117 -98 37 -129 71 -94 106 26 26 66 25 108 0 l34 -21 33 28 c18 15 34
31 34 34 1 4 -18 19 -40 35 -34 23 -54 29 -108 31 -41 2 -78 -2 -96 -11z"/>
<path d="M4270 1291 l0 -118 -41 20 c-28 13 -60 20 -98 20 -150 -2 -251 -105
-251 -257 1 -112 51 -195 145 -237 55 -25 159 -25 208 0 36 18 37 18 37 0 0
-16 8 -19 55 -19 l55 0 0 355 0 355 -55 0 -55 0 0 -119z m-35 -215 l35 -27 0
-94 c0 -89 -1 -95 -26 -114 -121 -95 -275 -4 -250 147 17 110 149 158 241 88z"/>
<path d="M2990 1270 l0 -60 -40 0 -40 0 0 -50 0 -50 40 0 40 0 0 -142 c1 -215
28 -258 169 -262 l66 -1 0 50 0 50 -47 3 c-71 5 -78 20 -78 174 l0 128 65 0
65 0 0 50 0 50 -65 0 -65 0 0 60 0 60 -55 0 -55 0 0 -60z"/>
<path d="M2628 1210 c-76 -23 -118 -72 -118 -137 0 -71 56 -127 163 -164 79
-28 100 -81 43 -108 -34 -16 -97 -2 -133 31 l-22 20 -41 -33 -42 -34 29 -23
c78 -65 201 -83 277 -39 70 40 94 118 58 187 -15 28 -38 45 -118 85 -77 39
-100 55 -102 73 -2 13 2 30 8 38 19 21 83 18 115 -7 l27 -22 35 35 35 35 -33
26 c-54 40 -123 55 -181 37z"/>
<path d="M3490 1211 c-94 -19 -169 -87 -195 -175 -19 -63 -19 -99 0 -162 41
-139 209 -215 343 -154 42 19 42 19 42 -1 0 -18 6 -20 53 -17 l52 3 3 253 2
252 -55 0 c-42 0 -55 -3 -55 -15 0 -19 -9 -19 -46 -1 -38 19 -101 26 -144 17z
m114 -115 c66 -27 76 -46 76 -140 0 -83 0 -84 -35 -114 -63 -56 -158 -52 -209
9 -32 38 -40 67 -34 130 10 100 107 155 202 115z"/>
</g>
</svg>
